<svg xmlns="http://www.w3.org/2000/svg" xmlns:xlink="http://www.w3.org/1999/xlink" preserveAspectRatio="xMidYMid" width="16" height="19" viewBox="0 0 16 19">
  <path fill="#ffcc00" d="M7.979,0.000 C10.558,0.028 13.118,3.448 11.455,6.175 C10.421,7.871 8.274,8.349 6.910,9.704 C6.327,10.282 5.469,11.128 5.372,12.146 C5.217,12.133 5.183,12.133 5.105,12.079 C3.706,11.625 2.694,9.085 3.501,7.261 C4.613,4.745 8.348,3.599 7.979,0.000 ZM4.704,1.357 C4.927,1.357 5.150,1.357 5.372,1.357 C5.502,1.512 5.674,1.507 5.840,1.629 C6.064,1.792 6.178,2.112 6.375,2.307 C6.333,2.426 6.362,2.373 6.308,2.443 C6.073,3.210 4.892,4.129 4.303,4.614 C4.012,4.854 3.944,5.269 3.501,5.361 C2.987,3.748 3.902,3.429 4.437,2.375 C4.590,2.072 4.587,1.678 4.704,1.357 ZM11.923,6.921 C11.967,6.921 12.012,6.921 12.056,6.921 C12.264,9.043 11.872,10.969 10.452,11.807 C9.400,12.429 7.051,12.405 6.910,10.993 C7.493,10.610 7.975,10.017 8.581,9.636 C10.010,8.737 11.050,8.440 11.923,6.921 ZM0.292,12.214 C1.273,12.214 2.253,12.214 3.233,12.214 C3.233,12.260 3.233,12.305 3.233,12.350 C3.451,12.826 2.851,12.754 2.498,12.893 C1.863,13.143 1.101,13.559 0.292,13.571 C0.209,13.461 0.152,13.435 0.025,13.368 C-0.054,12.788 0.048,12.585 0.292,12.214 ZM12.792,12.214 C13.750,12.214 14.708,12.214 15.666,12.214 C15.857,12.518 15.992,12.703 16.000,13.232 C15.864,13.368 15.749,13.593 15.532,13.639 C15.240,13.702 13.143,12.963 12.792,12.825 C12.725,12.674 12.690,12.632 12.658,12.418 C12.719,12.355 12.747,12.299 12.792,12.214 ZM5.239,12.893 C5.372,12.893 5.506,12.893 5.640,12.893 C5.801,13.137 5.939,13.168 5.974,13.571 C5.670,13.885 5.493,14.290 5.239,14.657 C4.948,15.075 4.527,15.461 4.236,15.879 C3.912,16.344 3.776,16.922 3.033,16.964 C2.930,17.016 2.804,16.977 2.565,16.964 C2.271,16.553 1.913,16.480 1.897,15.743 C1.999,15.632 1.942,15.554 2.030,15.404 C2.187,15.138 3.457,14.205 3.768,13.979 C4.242,13.634 4.906,13.373 5.239,12.893 ZM7.645,12.893 C8.026,12.888 8.188,12.959 8.447,13.029 C8.813,14.594 9.226,16.278 9.249,18.118 C8.636,18.661 8.773,19.019 7.511,19.000 C7.222,18.667 6.771,18.629 6.709,18.050 C6.496,17.776 6.598,17.129 6.709,16.693 C7.021,15.470 7.037,13.811 7.645,12.893 ZM10.319,12.893 C10.430,12.893 10.541,12.893 10.653,12.893 C10.912,13.210 11.344,13.304 11.655,13.571 C12.125,13.975 12.626,14.427 13.126,14.793 C13.478,15.050 13.868,15.111 13.928,15.675 C14.052,15.852 13.974,16.209 13.861,16.354 C13.705,16.848 13.271,16.987 12.591,16.964 C12.037,16.229 10.080,14.235 9.984,13.300 C10.096,13.164 10.207,13.029 10.319,12.893 Z" id="path-1" class="cls-2" fill-rule="evenodd"/>
</svg>
